<?xml version="1.0" encoding="utf-8"?>
<svg version="1.1" id="Layer_1" xmlns="http://www.w3.org/2000/svg" xmlns:xlink="http://www.w3.org/1999/xlink" x="0px" y="0px"
	 viewBox="0 0 300 300" style="enable-background:new 0 0 300 300;" xml:space="preserve">
<style type="text/css">
	.st0{fill:#FFFFFF;}
</style>
<g>
	<path class="st0" d="M298.74,115.4h-1.14c-0.6,0-14.67,0.06-34.55,5.04c-2.47-27.9-15.15-53.77-35.78-72.99
		C206.19,27.81,178.74,17,149.99,17s-56.2,10.81-77.28,30.45c-20.64,19.22-33.31,45.1-35.78,72.99
		c-19.88-4.98-33.95-5.04-34.55-5.04H1.24l-0.02,15.39c-0.01,8,5.92,14.93,13.8,16.12c15.81,2.38,39.62,8.54,63.32,24.33
		c35.77,23.85,58.51,63.25,58.76,63.7l0.32,0.59h23.06l0.66-0.01l0.33-0.57c0.22-0.39,24.72-40.08,60.17-63.71
		c22.27-14.85,44.74-21.1,59.66-23.74c10.13-1.79,17.47-10.49,17.45-20.71L298.74,115.4z M233.26,129.67l-0.46,0.13
		c-9.57,4.01-16.7,8.76-26.58,15.35l-1.37,0.91c-24.41,16.28-43.17,38.61-54.86,54.95c-11.69-16.34-30.45-38.68-54.86-54.95
		c-10.87-7.25-19.43-12.03-28.4-15.87C66.92,84.43,104.2,47.26,150,47.26C195.62,47.27,232.79,84.15,233.26,129.67z"/>
	<path class="st0" d="M241.87,248.54H57.9c-0.25,0-0.45,0.24-0.45,0.54v17.31c0,6.96,4.7,12.61,10.51,12.61h65.87h9.62h14.37h11.76
		h61.13c6.41,0,11.61-6.24,11.61-13.94v-15.99C242.32,248.78,242.12,248.54,241.87,248.54z"/>
</g>
</svg>
