<?xml version="1.0" encoding="utf-8"?>
<!-- Generator: Adobe Illustrator 23.0.3, SVG Export Plug-In . SVG Version: 6.00 Build 0)  -->
<svg version="1.1" id="Layer_1" xmlns="http://www.w3.org/2000/svg" xmlns:xlink="http://www.w3.org/1999/xlink" x="0px" y="0px"
	 viewBox="0 0 300 300" style="enable-background:new 0 0 300 300;" xml:space="preserve">
<style type="text/css">
	.st0{fill:#FFFFFF;}
</style>
<g>
	<path class="st0" d="M298.7,115.4h-1.1c-0.6,0-14.7,0.1-34.5,5c-2.5-27.9-15.1-53.8-35.8-73C206.2,27.8,178.7,17,150,17
		S93.8,27.8,72.7,47.4c-20.6,19.2-33.3,45.1-35.8,73c-19.9-5-34-5-34.5-5H1.2l0,15.4c0,8,5.9,14.9,13.8,16.1
		c15.8,2.4,39.6,8.5,63.3,24.3c35.8,23.9,58.5,63.3,58.8,63.7l0.3,0.6h23.1l0.7,0l0.3-0.6c0.2-0.4,24.7-40.1,60.2-63.7
		c22.3-14.9,44.7-21.1,59.7-23.7c10.1-1.8,17.5-10.5,17.5-20.7L298.7,115.4z M233.3,129.7l-0.5,0.1c-9.6,4-16.7,8.8-26.6,15.4
		l-1.4,0.9c-24.4,16.3-43.2,38.6-54.9,54.9c-11.7-16.3-30.4-38.7-54.9-54.9c-10.9-7.3-19.4-12-28.4-15.9
		c0.2-45.8,37.5-82.9,83.3-82.9C195.6,47.3,232.8,84.1,233.3,129.7z"/>
	<path class="st0" d="M241.9,248.5h-184c-0.3,0-0.5,0.2-0.5,0.5v17.3c0,7,4.7,12.6,10.5,12.6h65.9h9.6h14.4h11.8h61.1
		c6.4,0,11.6-6.2,11.6-13.9v-16C242.3,248.8,242.1,248.5,241.9,248.5z"/>
</g>
</svg>
