<svg xmlns="http://www.w3.org/2000/svg" viewBox="0 0 300 300"><path d="M298.7 115.4h-1.1c-.6 0-14.7.1-34.5 5-2.5-27.9-15.1-53.8-35.8-73C206.2 27.8 178.7 17 150 17S93.8 27.8 72.7 47.4c-20.6 19.2-33.3 45.1-35.8 73-19.9-5-34-5-34.5-5H1.2v15.4c0 8 5.9 14.9 13.8 16.1 15.8 2.4 39.6 8.5 63.3 24.3 35.8 23.9 58.5 63.3 58.8 63.7l.3.6h23.8l.3-.6c.2-.4 24.7-40.1 60.2-63.7 22.3-14.9 44.7-21.1 59.7-23.7 10.1-1.8 17.5-10.5 17.5-20.7l-.2-11.4zm-65.4 14.3l-.5.1c-9.6 4-16.7 8.8-26.6 15.4l-1.4.9c-24.4 16.3-43.2 38.6-54.9 54.9-11.7-16.3-30.4-38.7-54.9-54.9-10.9-7.3-19.4-12-28.4-15.9.2-45.8 37.5-82.9 83.3-82.9 45.7 0 82.9 36.8 83.4 82.4zm8.6 118.8h-184c-.3 0-.5.2-.5.5v17.3c0 7 4.7 12.6 10.5 12.6h162.8c6.4 0 11.6-6.2 11.6-13.9v-16c0-.2-.2-.5-.4-.5z" fill="#fff"/></svg>