<svg version="1.1" id="Layer_1" xmlns="http://www.w3.org/2000/svg" x="0" y="0" viewBox="0 0 199.58 150.16" xml:space="preserve"><style>.st1{fill:#ffce08}</style><circle cx="49.68" cy="92.77" r="45.29" fill="#fff"/><path class="st1" d="M73.57 41.46c.33-14.83 12.12-27.19 27.19-27.19s26.86 12.37 27.19 27.19c.09 3.86 6.09 3.87 6 0-.41-18.09-14.82-33.16-33.19-33.19-18.37-.04-32.78 15.15-33.19 33.19-.08 3.86 5.92 3.86 6 0z"/><circle cx="147.2" cy="92.77" r="45.29" fill="#f79868"/><path class="st1" d="M73.57 41.46c.33-14.83 12.12-27.19 27.19-27.19s26.86 12.37 27.19 27.19c.09 3.86 6.09 3.87 6 0-.41-18.09-14.82-33.16-33.19-33.19-18.37-.04-32.78 15.15-33.19 33.19-.08 3.86 5.92 3.86 6 0z"/></svg>