<?xml version="1.0" encoding="utf-8"?>
<!-- Generator: Adobe Illustrator 23.0.3, SVG Export Plug-In . SVG Version: 6.00 Build 0)  -->
<svg version="1.1" id="Layer_1" xmlns="http://www.w3.org/2000/svg" xmlns:xlink="http://www.w3.org/1999/xlink" x="0px" y="0px"
	 viewBox="0 0 199.58 150.16" style="enable-background:new 0 0 199.58 150.16;" xml:space="preserve">
<style type="text/css">
	.st0{fill:#FFFFFF;}
	.st1{fill:#FFCE08;}
	.st2{fill:#F79868;}
</style>
<g>
	<circle class="st0" cx="49.68" cy="92.77" r="45.29"/>
</g>
<path class="st1" d="M73.57,41.46c0.33-14.83,12.12-27.19,27.19-27.19s26.86,12.37,27.19,27.19c0.09,3.86,6.09,3.87,6,0
	c-0.41-18.09-14.82-33.16-33.19-33.19C82.39,8.23,67.98,23.42,67.57,41.46C67.49,45.32,73.49,45.32,73.57,41.46L73.57,41.46z"/>
<g>
	<circle class="st2" cx="147.2" cy="92.77" r="45.29"/>
</g>
<path class="st1" d="M73.57,41.46c0.33-14.83,12.12-27.19,27.19-27.19s26.86,12.37,27.19,27.19c0.09,3.86,6.09,3.87,6,0
	c-0.41-18.09-14.82-33.16-33.19-33.19C82.39,8.23,67.98,23.42,67.57,41.46C67.49,45.32,73.49,45.32,73.57,41.46L73.57,41.46z"/>
</svg>
